PathFileType	4	(X/Y/Z)	s05c0403.trc
DataRate	CameraRate	NumFrames	NumMarkers	Units	OrigDataRate	OrigDataStartFrame	OrigNumFrames
200	200	5	49	mm	200	250	2000
Frame#	Time	racr			lacr			c7			jug			rlel			rdr			llel			ldr			s2			lic			ric			lasi			rasi			rpsi			lpsi			rgt			lgt			rth1			rth2			rth3			rth4			rlfc			rsh1			rsh2			rsh3			rsh4			rlmal			rmmal			rcal			rtoe			rmt5			lth1			lth2			lth4			lth3			llfc			lmfc			lsh1			lsh2			lsh3			lsh4			llmal			lmmal			lcal			ltoe			lmt5			SBIKE			LBIKE			RBIKE			
		X1	Y1	Z1	X2	Y2	Z2	X3	Y3	Z3	X4	Y4	Z4	X5	Y5	Z5	X6	Y6	Z6	X7	Y7	Z7	X8	Y8	Z8	X9	Y9	Z9	X10	Y10	Z10	X11	Y11	Z11	X12	Y12	Z12	X13	Y13	Z13	X14	Y14	Z14	X15	Y15	Z15	X16	Y16	Z16	X17	Y17	Z17	X18	Y18	Z18	X19	Y19	Z19	X20	Y20	Z20	X21	Y21	Z21	X22	Y22	Z22	X23	Y23	Z23	X24	Y24	Z24	X25	Y25	Z25	X26	Y26	Z26	X27	Y27	Z27	X28	Y28	Z28	X29	Y29	Z29	X30	Y30	Z30	X31	Y31	Z31	X32	Y32	Z32	X33	Y33	Z33	X34	Y34	Z34	X35	Y35	Z35	X36	Y36	Z36	X37	Y37	Z37	X38	Y38	Z38	X39	Y39	Z39	X40	Y40	Z40	X41	Y41	Z41	X42	Y42	Z42	X43	Y43	Z43	X44	Y44	Z44	X45	Y45	Z45	X46	Y46	Z46	X47	Y47	Z47	X48	Y48	Z48	X49	Y49	Z49	
250	1.2500	473.561779	1313.695722	-126.391139	491.103406	1326.483607	-400.208533	449.777568	1397.368118	-270.158379	428.705320	1235.537837	-270.730371	474.820797	1080.304244	32.608973	670.762070	968.284462	-75.031229	454.975489	1099.788120	-596.966264	753.856462	1027.894200	-480.312320	-104.385511	1167.862034	-279.819425	46.219240	1170.292273	-426.275328	47.440050	1177.846935	-143.661655	82.997862	1111.903691	-390.737659	87.678322	1118.375139	-170.270135	-64.276480	1209.753141	-241.793356	-62.607374	1213.937607	-328.404846	3.548055	1066.293405	-108.106989	-43.141102	1066.990069	-451.730368	102.670186	1007.454267	-98.100323	189.959050	989.262467	-98.248779	254.533086	929.752836	-99.973603	205.505518	1020.499119	-110.284173	387.406207	850.361675	-125.596612	325.701991	757.374208	-101.906355	315.373090	669.599268	-113.044303	266.811979	599.274213	-115.553544	344.131338	661.576896	-137.554576	224.570384	472.805451	-123.900911	235.883516	504.114769	-201.807355	154.007557	433.466994	-168.546935	449.171698	432.690763	-159.889876	349.640795	402.847419	-95.126933	38.186995	942.335041	-475.062940	109.533580	894.152296	-475.775214	138.092143	915.975842	-465.025518	147.287572	811.844771	-476.065231	223.158226	685.382510	-444.023840	208.835384	679.987795	-334.156208	126.768713	599.709072	-464.161376	90.864490	520.901638	-449.706370	18.172290	470.078692	-445.687520	116.438893	503.942598	-426.551219	-52.958488	366.656663	-434.106577	-16.287943	391.015507	-358.522379	-124.125244	346.210944	-388.046383	151.123706	243.499057	-402.311575	38.727777	249.315798	-461.903689	-172.342247	898.458031	-275.613048	-53.554495	78.819126	-474.805170	-53.503938	79.165165	-77.176623	
251	1.2550	477.658945	1310.331181	-126.189518	495.209493	1323.529435	-398.985612	452.975092	1394.470865	-269.488451	431.673906	1232.359124	-270.184481	475.363167	1077.954213	34.466900	670.791966	968.255055	-74.381930	455.769612	1099.025940	-598.514439	754.063055	1029.599382	-477.525124	-103.200189	1168.798177	-279.664610	47.799159	1170.104986	-426.287605	49.145165	1177.124295	-143.543404	84.154105	1112.250794	-391.405919	88.699365	1117.568073	-170.255290	-62.339433	1210.112502	-241.618940	-60.727446	1214.470654	-328.271102	4.087058	1065.869240	-108.202141	-42.455568	1067.687268	-451.833195	102.760800	1005.997815	-98.327059	189.782124	986.531980	-98.742603	253.758688	926.388265	-100.456915	205.771488	1017.685415	-110.580215	385.600542	845.757470	-126.548692	324.413992	752.477516	-102.483538	314.769349	664.619271	-113.542931	266.785251	593.840514	-115.942215	343.610756	656.828270	-138.049395	225.367678	466.989456	-124.055700	237.823593	497.984677	-203.020896	155.240654	426.912954	-168.660988	450.349058	429.358330	-159.834262	351.146556	398.564535	-95.038017	39.093056	943.219423	-475.069236	110.774564	895.658541	-475.968668	139.223054	917.653746	-465.133818	149.164966	813.591555	-476.424465	225.722416	687.316940	-444.473807	211.324479	682.116050	-334.520225	128.601438	602.454339	-464.149443	91.864705	524.033101	-449.814221	18.652509	473.979596	-445.590410	117.290093	506.781703	-426.641844	-53.731078	371.484923	-434.127512	-16.759400	395.546071	-358.486955	-125.057066	351.569690	-387.991834	149.480267	246.745541	-402.321814	37.086939	253.381185	-461.916879	-172.321329	898.358948	-276.131651	-53.552683	78.824610	-474.816296	-53.500624	79.156725	-77.187790	
252	1.2600	481.810966	1306.954181	-126.007952	499.346013	1320.587336	-397.753920	456.202184	1391.553902	-268.745139	434.690414	1229.252678	-269.755500	475.972098	1075.782631	36.342815	670.816020	968.226878	-73.746400	456.688439	1098.221534	-600.022794	753.797047	1027.921773	-480.284232	-101.885270	1169.627161	-279.459494	49.446163	1169.944783	-426.262083	50.932037	1176.424870	-143.452608	85.097341	1111.814089	-391.361920	89.794284	1116.782289	-170.217703	-60.324677	1210.442064	-241.377461	-58.890118	1214.914648	-328.054617	4.845426	1065.502680	-108.278813	-41.641680	1068.343515	-451.969892	102.901396	1004.252643	-98.570289	189.643300	983.818247	-99.117047	252.895180	922.813093	-101.122927	206.024589	1014.652993	-110.966379	383.833407	841.078581	-127.547731	323.027448	747.420949	-103.077324	314.112324	659.327567	-114.075608	266.720376	588.284258	-116.374663	343.002322	651.822618	-138.603247	225.980336	461.329578	-124.204106	237.319760	492.333463	-203.147585	156.062593	421.119810	-167.790172	451.408069	426.278344	-159.756151	352.473987	394.219126	-95.016994	40.074100	944.227527	-475.182491	112.110272	897.150050	-476.651749	140.403675	919.336633	-465.292636	151.106004	815.387221	-476.750191	228.268272	689.332296	-444.963298	213.811072	684.176355	-335.022265	130.486413	605.356107	-464.234454	92.949976	527.269891	-449.952846	19.169704	478.029024	-445.657108	118.215838	509.770156	-426.711008	-54.309423	376.217235	-434.007072	-17.067994	400.059934	-358.457086	-125.731657	356.956236	-387.920324	147.954282	250.019889	-402.291708	35.613708	257.516077	-461.923798	-172.342793	898.349164	-276.289150	-53.539093	78.827078	-474.823294	-53.513429	79.170630	-77.183798	
253	1.2650	486.025600	1303.605970	-125.915772	503.508333	1317.626162	-396.475941	459.548211	1388.759421	-268.056642	437.743370	1226.142098	-269.227784	476.472818	1073.569659	38.208411	670.838376	968.165108	-73.098222	457.594082	1097.533530	-601.506079	753.883559	1027.856724	-480.341566	-100.416438	1170.395564	-279.413112	51.087880	1169.803483	-426.091779	52.710755	1175.696606	-143.344767	86.196390	1111.418406	-391.297891	90.863341	1115.879359	-170.313283	-58.171936	1210.848789	-241.154254	-56.878301	1215.342743	-327.791828	5.630479	1064.977140	-108.358986	-40.733712	1068.963821	-452.062059	103.023473	1002.409312	-98.727011	189.476354	980.867414	-99.421481	251.958113	919.169934	-101.754339	206.280475	1011.740058	-111.095667	381.937245	836.184072	-128.399114	321.678000	742.098661	-103.634882	313.468892	653.936351	-114.615266	266.748604	582.423022	-116.786543	342.336022	646.768551	-139.231302	226.439905	455.403982	-124.342914	236.832848	486.545284	-202.708995	156.726787	414.093493	-168.110346	452.202825	422.948235	-159.588051	353.667439	389.814555	-94.868242	41.241294	945.203635	-475.291915	113.583517	898.640222	-476.812767	141.714982	920.996937	-465.368563	153.141030	817.150837	-477.076400	230.900689	691.276758	-445.426103	216.488762	686.127579	-335.510455	132.441172	608.253593	-464.529785	94.090584	530.603966	-450.130806	19.812642	482.143299	-445.816642	119.100301	512.771052	-426.795467	-54.583072	381.143781	-433.997200	-17.217414	404.588341	-358.416022	-126.217607	362.362152	-387.871413	146.561229	253.210616	-402.288714	34.313096	261.687784	-461.844618	-172.383086	898.316301	-276.305820	-53.535128	78.806163	-474.804616	-53.496903	79.180272	-77.180881	
254	1.2700	490.318458	1300.269282	-125.770986	507.694287	1314.696801	-395.299345	462.943741	1385.866037	-267.292167	440.835017	1223.064486	-268.747975	477.158488	1071.424760	39.982882	670.856257	968.010142	-72.435040	458.571042	1096.994690	-602.902172	753.643670	1027.889118	-480.250232	-98.786836	1171.309077	-279.252253	52.925682	1169.643617	-426.058807	54.538384	1175.000616	-143.184398	87.468420	1110.940897	-391.324774	91.967123	1115.010358	-170.350894	-55.923550	1211.195386	-240.829300	-54.846158	1215.812138	-327.516028	6.236146	1064.520849	-108.680071	-39.721867	1069.637440	-452.147069	103.138430	1000.580690	-98.878824	189.286856	977.939323	-99.747345	250.994461	915.452129	-102.415005	206.538910	1008.683934	-111.166543	380.091457	831.145333	-129.099646	320.338724	736.612075	-104.065008	312.673346	648.645054	-115.169156	266.586198	576.684079	-117.287941	342.676543	641.572867	-139.582739	226.758112	449.483960	-124.475200	236.888240	480.542807	-202.921462	157.546565	407.295546	-168.227625	452.938737	419.743464	-159.461097	354.704755	385.371054	-94.777171	42.522069	946.261774	-475.484217	115.179043	900.158474	-476.559073	143.112104	922.672073	-465.498110	155.300033	818.920524	-477.395462	233.515062	693.213394	-445.933920	219.094259	688.137160	-336.046872	134.558907	611.125285	-464.959808	95.379322	533.966621	-450.400269	20.581176	486.222804	-445.935551	120.260789	515.835523	-427.062196	-54.840890	386.039052	-433.969803	-17.191445	409.180646	-358.421710	-126.649816	367.778868	-387.878885	145.257736	256.439673	-402.267424	33.112914	265.836163	-461.837108	-172.355188	898.269918	-276.378716	-53.541121	78.794389	-474.806603	-53.498659	79.148793	-77.189357	
